<svg width="800" height="600" viewBox="0 0 800 600" fill="none" xmlns="http://www.w3.org/2000/svg">
<rect width="800" height="600" fill="#3D7E4B"/>
<path d="M514.783 390.121C513.396 396.847 505.515 402 496 402C486.485 402 478.604 396.847 477.217 390.121C478.604 380.994 486.485 374 496 374C505.515 374 513.396 380.994 514.783 390.121Z" fill="#5AC971"/>
<path d="M479.3 376.227C480.041 372.952 484.244 371.992 486.333 374.622L488.877 377.825C490.709 380.13 489.506 383.557 486.636 384.212L483.189 384.999C480.318 385.654 477.747 383.089 478.397 380.217L479.3 376.227Z" fill="#5AC971"/>
<path d="M512.011 376.227C511.27 372.952 507.066 371.992 504.977 374.622L502.433 377.825C500.602 380.13 501.804 383.557 504.675 384.212L508.122 384.999C510.992 385.654 513.563 383.089 512.913 380.217L512.011 376.227Z" fill="#5AC971"/>
<path d="M484.002 387.411C481.241 387.411 478.924 389.734 480.007 392.274C480.853 394.258 482.215 396.081 484.022 397.601C487.237 400.303 491.597 401.822 496.144 401.823C500.691 401.823 505.052 400.306 508.268 397.604C510.075 396.085 511.438 394.262 512.284 392.278C513.368 389.738 511.052 387.415 508.291 387.414L496.146 387.413L484.002 387.411Z" fill="#FFF8B8"/>
<path d="M509 388C509 389.105 507.209 390 505 390C502.791 390 501 389.105 501 388C501 386.895 502.791 387 505 387C507.209 387 509 386.895 509 388Z" fill="#D95151"/>
<path d="M72.7833 270.121C71.396 276.847 63.5148 282 54 282C44.4852 282 36.604 276.847 35.2167 270.121C36.604 260.994 44.4852 254 54 254C63.5148 254 71.396 260.994 72.7833 270.121Z" fill="#5AC971"/>
<path d="M37.2998 256.227C38.0408 252.952 42.2443 251.992 44.3332 254.622L46.8775 257.825C48.7089 260.13 47.5062 263.557 44.6356 264.212L41.1887 264.999C38.3182 265.654 35.7475 263.089 36.3972 260.217L37.2998 256.227Z" fill="#5AC971"/>
<path d="M70.0108 256.227C69.2698 252.952 65.0663 251.992 62.9774 254.622L60.4331 257.825C58.6017 260.13 59.8045 263.557 62.675 264.212L66.1219 264.999C68.9924 265.654 71.5631 263.089 70.9134 260.217L70.0108 256.227Z" fill="#5AC971"/>
<path d="M42.0019 267.411C39.2405 267.411 36.924 269.734 38.0071 272.274C38.8533 274.258 40.2151 276.081 42.022 277.601C45.2369 280.303 49.5974 281.822 54.1444 281.823C58.6914 281.823 63.0523 280.306 66.2679 277.604C68.0753 276.085 69.4376 274.262 70.2842 272.278C71.368 269.738 69.0522 267.415 66.2907 267.414L54.1463 267.413L42.0019 267.411Z" fill="#FFF8B8"/>
<path d="M67 268C67 269.105 65.2091 270 63 270C60.7909 270 59 269.105 59 268C59 266.895 60.7909 267 63 267C65.2091 267 67 266.895 67 268Z" fill="#D95151"/>
<path d="M449.783 90.1212C448.396 96.8466 440.515 102 431 102C421.485 102 413.604 96.8466 412.217 90.1212C413.604 80.9939 421.485 74 431 74C440.515 74 448.396 80.9939 449.783 90.1212Z" fill="#5AC971"/>
<path d="M414.3 76.2274C415.041 72.9519 419.244 71.9925 421.333 74.6219L423.877 77.8247C425.709 80.1301 424.506 83.5572 421.636 84.2125L418.189 84.9993C415.318 85.6545 412.747 83.0887 413.397 80.2169L414.3 76.2274Z" fill="#5AC971"/>
<path d="M447.011 76.2274C446.27 72.9519 442.066 71.9925 439.977 74.6219L437.433 77.8247C435.602 80.1301 436.804 83.5572 439.675 84.2125L443.122 84.9993C445.992 85.6545 448.563 83.0887 447.913 80.2169L447.011 76.2274Z" fill="#5AC971"/>
<path d="M419.002 87.4109C416.241 87.4106 413.924 89.7335 415.007 92.2737C415.853 94.258 417.215 96.0813 419.022 97.6005C422.237 100.303 426.597 101.822 431.144 101.823C435.691 101.823 440.052 100.306 443.268 97.6038C445.075 96.0851 446.438 94.2621 447.284 92.278C448.368 89.7382 446.052 87.4146 443.291 87.4142L431.146 87.4126L419.002 87.4109Z" fill="#FFF8B8"/>
<path d="M444 88C444 89.1046 442.209 90 440 90C437.791 90 436 89.1046 436 88C436 86.8954 437.791 87 440 87C442.209 87 444 86.8954 444 88Z" fill="#D95151"/>
<path d="M709.783 330.121C708.396 336.847 700.515 342 691 342C681.485 342 673.604 336.847 672.217 330.121C673.604 320.994 681.485 314 691 314C700.515 314 708.396 320.994 709.783 330.121Z" fill="#5AC971"/>
<path d="M674.3 316.227C675.041 312.952 679.244 311.992 681.333 314.622L683.877 317.825C685.709 320.13 684.506 323.557 681.636 324.212L678.189 324.999C675.318 325.654 672.747 323.089 673.397 320.217L674.3 316.227Z" fill="#5AC971"/>
<path d="M707.011 316.227C706.27 312.952 702.066 311.992 699.977 314.622L697.433 317.825C695.602 320.13 696.804 323.557 699.675 324.212L703.122 324.999C705.992 325.654 708.563 323.089 707.913 320.217L707.011 316.227Z" fill="#5AC971"/>
<path d="M679.002 327.411C676.241 327.411 673.924 329.734 675.007 332.274C675.853 334.258 677.215 336.081 679.022 337.601C682.237 340.303 686.597 341.822 691.144 341.823C695.691 341.823 700.052 340.306 703.268 337.604C705.075 336.085 706.438 334.262 707.284 332.278C708.368 329.738 706.052 327.415 703.291 327.414L691.146 327.413L679.002 327.411Z" fill="#FFF8B8"/>
<path d="M704 328C704 329.105 702.209 330 700 330C697.791 330 696 329.105 696 328C696 326.895 697.791 327 700 327C702.209 327 704 326.895 704 328Z" fill="#D95151"/>
<path d="M137.783 450.121C136.396 456.847 128.515 462 119 462C109.485 462 101.604 456.847 100.217 450.121C101.604 440.994 109.485 434 119 434C128.515 434 136.396 440.994 137.783 450.121Z" fill="#5AC971"/>
<path d="M102.3 436.227C103.041 432.952 107.244 431.992 109.333 434.622L111.877 437.825C113.709 440.13 112.506 443.557 109.636 444.212L106.189 444.999C103.318 445.654 100.747 443.089 101.397 440.217L102.3 436.227Z" fill="#5AC971"/>
<path d="M135.011 436.227C134.27 432.952 130.066 431.992 127.977 434.622L125.433 437.825C123.602 440.13 124.804 443.557 127.675 444.212L131.122 444.999C133.992 445.654 136.563 443.089 135.913 440.217L135.011 436.227Z" fill="#5AC971"/>
<path d="M107.002 447.411C104.241 447.411 101.924 449.734 103.007 452.274C103.853 454.258 105.215 456.081 107.022 457.601C110.237 460.303 114.597 461.822 119.144 461.823C123.691 461.823 128.052 460.306 131.268 457.604C133.075 456.085 134.438 454.262 135.284 452.278C136.368 449.738 134.052 447.415 131.291 447.414L119.146 447.413L107.002 447.411Z" fill="#FFF8B8"/>
<path d="M132 448C132 449.105 130.209 450 128 450C125.791 450 124 449.105 124 448C124 446.895 125.791 447 128 447C130.209 447 132 446.895 132 448Z" fill="#D95151"/>
<path d="M579.783 510.121C578.396 516.847 570.515 522 561 522C551.485 522 543.604 516.847 542.217 510.121C543.604 500.994 551.485 494 561 494C570.515 494 578.396 500.994 579.783 510.121Z" fill="#5AC971"/>
<path d="M544.3 496.227C545.041 492.952 549.244 491.992 551.333 494.622L553.877 497.825C555.709 500.13 554.506 503.557 551.636 504.212L548.189 504.999C545.318 505.654 542.747 503.089 543.397 500.217L544.3 496.227Z" fill="#5AC971"/>
<path d="M577.011 496.227C576.27 492.952 572.066 491.992 569.977 494.622L567.433 497.825C565.602 500.13 566.804 503.557 569.675 504.212L573.122 504.999C575.992 505.654 578.563 503.089 577.913 500.217L577.011 496.227Z" fill="#5AC971"/>
<path d="M549.002 507.411C546.241 507.411 543.924 509.734 545.007 512.274C545.853 514.258 547.215 516.081 549.022 517.601C552.237 520.303 556.597 521.822 561.144 521.823C565.691 521.823 570.052 520.306 573.268 517.604C575.075 516.085 576.438 514.262 577.284 512.278C578.368 509.738 576.052 507.415 573.291 507.414L561.146 507.413L549.002 507.411Z" fill="#FFF8B8"/>
<path d="M574 508C574 509.105 572.209 510 570 510C567.791 510 566 509.105 566 508C566 506.895 567.791 507 570 507C572.209 507 574 506.895 574 508Z" fill="#D95151"/>
<path d="M202.783 150.121C201.396 156.847 193.515 162 184 162C174.485 162 166.604 156.847 165.217 150.121C166.604 140.994 174.485 134 184 134C193.515 134 201.396 140.994 202.783 150.121Z" fill="#5AC971"/>
<path d="M167.3 136.227C168.041 132.952 172.244 131.992 174.333 134.622L176.877 137.825C178.709 140.13 177.506 143.557 174.636 144.212L171.189 144.999C168.318 145.654 165.747 143.089 166.397 140.217L167.3 136.227Z" fill="#5AC971"/>
<path d="M200.011 136.227C199.27 132.952 195.066 131.992 192.977 134.622L190.433 137.825C188.602 140.13 189.804 143.557 192.675 144.212L196.122 144.999C198.992 145.654 201.563 143.089 200.913 140.217L200.011 136.227Z" fill="#5AC971"/>
<path d="M172.002 147.411C169.241 147.411 166.924 149.734 168.007 152.274C168.853 154.258 170.215 156.081 172.022 157.601C175.237 160.303 179.597 161.822 184.144 161.823C188.691 161.823 193.052 160.306 196.268 157.604C198.075 156.085 199.438 154.262 200.284 152.278C201.368 149.738 199.052 147.415 196.291 147.414L184.146 147.413L172.002 147.411Z" fill="#FFF8B8"/>
<path d="M197 148C197 149.105 195.209 150 193 150C190.791 150 189 149.105 189 148C189 146.895 190.791 147 193 147C195.209 147 197 146.895 197 148Z" fill="#D95151"/>
<path d="M644.783 210.121C643.396 216.847 635.515 222 626 222C616.485 222 608.604 216.847 607.217 210.121C608.604 200.994 616.485 194 626 194C635.515 194 643.396 200.994 644.783 210.121Z" fill="#5AC971"/>
<path d="M609.3 196.227C610.041 192.952 614.244 191.992 616.333 194.622L618.877 197.825C620.709 200.13 619.506 203.557 616.636 204.212L613.189 204.999C610.318 205.654 607.747 203.089 608.397 200.217L609.3 196.227Z" fill="#5AC971"/>
<path d="M642.011 196.227C641.27 192.952 637.066 191.992 634.977 194.622L632.433 197.825C630.602 200.13 631.804 203.557 634.675 204.212L638.122 204.999C640.992 205.654 643.563 203.089 642.913 200.217L642.011 196.227Z" fill="#5AC971"/>
<path d="M614.002 207.411C611.241 207.411 608.924 209.734 610.007 212.274C610.853 214.258 612.215 216.081 614.022 217.601C617.237 220.303 621.597 221.822 626.144 221.823C630.691 221.823 635.052 220.306 638.268 217.604C640.075 216.085 641.438 214.262 642.284 212.278C643.368 209.738 641.052 207.415 638.291 207.414L626.146 207.413L614.002 207.411Z" fill="#FFF8B8"/>
<path d="M639 208C639 209.105 637.209 210 635 210C632.791 210 631 209.105 631 208C631 206.895 632.791 207 635 207C637.209 207 639 206.895 639 208Z" fill="#D95151"/>
<path d="M201.578 385.407C198.847 387.003 195.586 387.473 192.41 386.73C189.234 385.987 186.363 384.081 184.34 381.373C182.317 378.666 181.281 375.343 181.428 372.032C181.575 368.721 182.894 365.653 185.138 363.405C187.381 361.157 190.393 359.886 193.604 359.831C196.816 359.777 200.004 360.943 202.568 363.109C205.132 365.275 206.893 368.292 207.52 371.59C208.147 374.887 207.595 378.237 205.969 381.007L194.593 373.452L201.578 385.407Z" fill="#5AC971"/>
<path d="M201.578 385.407C199.14 386.831 196.271 387.364 193.408 386.923C190.544 386.483 187.844 385.093 185.719 382.967C183.594 380.841 182.159 378.094 181.635 375.146C181.111 372.197 181.525 369.209 182.815 366.636L194.593 373.452L201.578 385.407Z" fill="#79D88D"/>
<path d="M417.568 467.496C416.222 470.358 413.802 472.594 410.765 473.782C407.727 474.97 404.282 475.027 401.08 473.942C397.878 472.858 395.142 470.707 393.386 467.897C391.631 465.086 390.979 461.809 391.554 458.686C392.128 455.562 393.889 452.808 396.504 450.943C399.118 449.078 402.406 448.232 405.746 448.564C409.087 448.895 412.248 450.383 414.633 452.744C417.018 455.106 418.462 458.178 418.692 461.382L405.038 461.605L417.568 467.496Z" fill="#5AC971"/>
<path d="M417.568 467.496C416.367 470.051 414.305 472.116 411.696 473.376C409.088 474.635 406.076 475.021 403.12 474.474C400.163 473.927 397.425 472.476 395.322 470.344C393.219 468.212 391.867 465.516 391.471 462.665L405.038 461.605L417.568 467.496Z" fill="#79D88D"/>
<path d="M555.846 349.99C553.017 348.575 550.84 346.102 549.726 343.036C548.612 339.971 548.638 336.526 549.799 333.351C550.96 330.176 553.176 327.492 556.028 325.805C558.881 324.118 562.172 323.545 565.28 324.195C568.389 324.844 571.1 326.671 572.901 329.33C574.703 331.989 575.47 335.296 575.058 338.627C574.646 341.959 573.083 345.083 570.664 347.41C568.246 349.738 565.14 351.108 561.932 351.261L562.038 337.605L555.846 349.99Z" fill="#5AC971"/>
<path d="M555.846 349.99C553.321 348.727 551.306 346.616 550.11 343.978C548.913 341.34 548.6 338.319 549.218 335.377C549.837 332.435 551.352 329.732 553.534 327.681C555.716 325.63 558.445 324.343 561.304 324.016L562.038 337.605L555.846 349.99Z" fill="#79D88D"/>
<path d="M730.036 225.812C729.761 222.661 730.731 219.512 732.761 216.959C734.791 214.406 737.741 212.626 741.054 211.956C744.368 211.285 747.814 211.77 750.744 213.319C753.673 214.868 755.883 217.373 756.955 220.363C758.028 223.352 757.889 226.618 756.564 229.544C755.24 232.47 752.822 234.853 749.767 236.244C746.713 237.635 743.232 237.937 739.984 237.093C736.735 236.249 733.943 234.318 732.135 231.664L743.83 224.612L730.036 225.812Z" fill="#5AC971"/>
<path d="M730.035 225.812C729.791 222.999 730.537 220.178 732.159 217.778C733.782 215.379 736.193 213.532 739.024 212.521C741.855 211.509 744.951 211.387 747.841 212.174C750.73 212.962 753.254 214.614 755.028 216.88L743.83 224.612L730.035 225.812Z" fill="#79D88D"/>
<path d="M658.122 71.2948C657.848 68.1439 658.817 64.9947 660.847 62.4419C662.877 59.889 665.828 58.1092 669.141 57.4386C672.454 56.7679 675.901 57.2528 678.83 58.8016C681.76 60.3505 683.969 62.8561 685.042 65.8454C686.114 68.8347 685.975 72.1007 684.651 75.0267C683.326 77.9528 680.908 80.3362 677.854 81.7271C674.799 83.118 671.319 83.42 668.07 82.5761C664.821 81.7321 662.029 79.8007 660.221 77.1465L671.916 70.0947L658.122 71.2948Z" fill="#5AC971"/>
<path d="M658.122 71.2949C657.877 68.4821 658.623 65.6609 660.246 63.2613C661.869 60.8616 664.279 59.0152 667.11 58.0035C669.941 56.9918 673.038 56.8702 675.927 57.6573C678.816 58.4444 681.34 60.097 683.114 62.3633L671.916 70.0948L658.122 71.2949Z" fill="#79D88D"/>
<path d="M665.122 535.295C664.848 532.144 665.817 528.995 667.847 526.442C669.877 523.889 672.828 522.109 676.141 521.439C679.454 520.768 682.901 521.253 685.83 522.802C688.76 524.35 690.969 526.856 692.042 529.845C693.114 532.835 692.975 536.101 691.651 539.027C690.326 541.953 687.908 544.336 684.854 545.727C681.799 547.118 678.319 547.42 675.07 546.576C671.821 545.732 669.029 543.801 667.221 541.147L678.916 534.095L665.122 535.295Z" fill="#5AC971"/>
<path d="M665.122 535.295C664.877 532.482 665.623 529.661 667.246 527.261C668.868 524.862 671.279 523.015 674.11 522.003C676.941 520.992 680.038 520.87 682.927 521.657C685.816 522.444 688.34 524.097 690.114 526.363L678.916 534.095L665.122 535.295Z" fill="#79D88D"/>
<path d="M220.257 271.282C217.098 271.434 213.989 270.343 211.517 268.215C209.045 266.088 207.38 263.071 206.839 259.734C206.297 256.398 206.915 252.972 208.576 250.105C210.238 247.238 212.827 245.127 215.856 244.171C218.884 243.215 222.142 243.481 225.015 244.918C227.887 246.354 230.175 248.863 231.447 251.969C232.718 255.076 232.885 258.565 231.916 261.779C230.947 264.992 228.908 267.707 226.186 269.411L219.593 257.452L220.257 271.282Z" fill="#5AC971"/>
<path d="M220.257 271.282C217.437 271.417 214.647 270.563 212.312 268.848C209.977 267.134 208.226 264.653 207.324 261.785C206.423 258.917 206.422 255.818 207.32 252.962C208.219 250.105 209.968 247.647 212.301 245.962L219.593 257.452L220.257 271.282Z" fill="#79D88D"/>
<path d="M338.638 295.713C337.26 292.866 337.045 289.578 338.034 286.47C339.022 283.362 341.146 280.648 344.003 278.842C346.861 277.036 350.255 276.263 353.544 276.668C356.833 277.072 359.789 278.628 361.855 281.039C363.921 283.451 364.954 286.553 364.758 289.759C364.561 292.965 363.15 296.052 360.791 298.439C358.431 300.827 355.286 302.347 351.95 302.715C348.613 303.083 345.317 302.271 342.682 300.435L351.102 289.682L338.638 295.713Z" fill="#5AC971"/>
<path d="M338.638 295.713C337.408 293.172 337.101 290.27 337.763 287.45C338.426 284.63 340.021 282.046 342.307 280.093C344.593 278.14 347.443 276.924 350.423 276.632C353.404 276.339 356.35 276.985 358.815 278.471L351.102 289.682L338.638 295.713Z" fill="#79D88D"/>
<path d="M450.257 185.282C447.098 185.434 443.989 184.343 441.517 182.215C439.045 180.088 437.38 177.071 436.839 173.734C436.297 170.398 436.915 166.972 438.576 164.105C440.238 161.238 442.827 159.127 445.856 158.171C448.884 157.215 452.142 157.481 455.015 158.918C457.887 160.354 460.175 162.863 461.447 165.969C462.718 169.076 462.885 172.565 461.916 175.779C460.947 178.992 458.908 181.707 456.186 183.411L449.593 171.452L450.257 185.282Z" fill="#5AC971"/>
<path d="M450.257 185.282C447.437 185.417 444.647 184.563 442.312 182.848C439.977 181.134 438.226 178.653 437.324 175.785C436.423 172.917 436.422 169.818 437.32 166.962C438.219 164.105 439.968 161.647 442.301 159.962L449.593 171.452L450.257 185.282Z" fill="#79D88D"/>
<path d="M226.914 113.599C226.423 110.475 227.174 107.266 229.023 104.58C230.872 101.893 233.693 99.9141 236.952 99.0167C240.211 98.1193 243.683 98.3656 246.712 99.7089C249.742 101.052 252.119 103.4 253.394 106.308C254.67 109.216 254.756 112.484 253.637 115.494C252.517 118.505 250.27 121.049 247.318 122.647C244.366 124.245 240.915 124.786 237.616 124.168C234.317 123.55 231.398 121.816 229.411 119.292L240.593 111.452L226.914 113.599Z" fill="#5AC971"/>
<path d="M226.914 113.599C226.476 110.81 227.026 107.944 228.479 105.438C229.933 102.933 232.211 100.925 234.965 99.7202C237.72 98.5158 240.8 98.1811 243.737 98.7673C246.674 99.3534 249.306 100.828 251.232 102.967L240.593 111.452L226.914 113.599Z" fill="#79D88D"/>
<path d="M21.3366 78.6898C20.846 75.5653 21.5962 72.3568 23.4456 69.6701C25.295 66.9834 28.1155 65.0046 31.3745 64.1072C34.6335 63.2098 38.1055 63.456 41.1349 64.7993C44.1642 66.1426 46.5412 68.4901 47.8169 71.3984C49.0927 74.3067 49.179 77.5745 48.0595 80.5848C46.9399 83.5951 44.6921 86.1395 41.7404 87.7376C38.7888 89.3357 35.3376 89.8768 32.0385 89.2587C28.7395 88.6406 25.8209 86.9062 23.834 84.3829L35.0154 76.542L21.3366 78.6898Z" fill="#5AC971"/>
<path d="M21.3366 78.6898C20.8987 75.9006 21.4484 73.0347 22.9019 70.5289C24.3555 68.0232 26.6332 66.0151 29.3878 64.8107C32.1424 63.6062 35.2229 63.2716 38.1596 63.8577C41.0964 64.4439 43.7283 65.9186 45.6543 68.0573L35.0154 76.542L21.3366 78.6898Z" fill="#79D88D"/>
<path d="M51.5483 552.553C48.7264 551.125 46.5616 548.641 45.4628 545.57C44.3639 542.499 44.407 539.054 45.5839 535.885C46.7608 532.716 48.9901 530.043 51.8508 528.37C54.7114 526.697 58.0055 526.141 61.1109 526.806C64.2164 527.471 66.9182 529.311 68.7063 531.979C70.4944 534.647 71.2449 537.958 70.8161 541.287C70.3874 544.616 68.8091 547.732 66.3792 550.048C63.9493 552.363 60.8361 553.718 57.6274 553.855L57.8013 540.199L51.5483 552.553Z" fill="#5AC971"/>
<path d="M51.5483 552.553C49.0292 551.278 47.0252 549.157 45.8418 546.513C44.6584 543.869 44.3605 540.847 44.9934 537.908C45.6263 534.969 47.1555 532.274 49.3477 530.234C51.5399 528.194 54.2749 526.92 57.1359 526.608L57.8014 540.199L51.5483 552.553Z" fill="#79D88D"/>
<circle cx="215.319" cy="393.791" r="1" transform="rotate(86.214 215.319 393.791)" fill="#79D88D"/>
<circle cx="211.064" cy="390.064" r="1" transform="rotate(86.214 211.064 390.064)" fill="#79D88D"/>
<circle cx="225.304" cy="279.36" r="1" transform="rotate(-60.9222 225.304 279.36)" fill="#79D88D"/>
<circle cx="226.856" cy="284.8" r="1" transform="rotate(-60.9222 226.856 284.8)" fill="#79D88D"/>
<circle cx="17.6961" cy="84.814" r="1" transform="rotate(13.9421 17.6961 84.814)" fill="#79D88D"/>
<circle cx="12.8502" cy="87.7324" r="1" transform="rotate(13.9421 12.8502 87.7324)" fill="#79D88D"/>
<circle cx="51.3962" cy="559.576" r="1" transform="rotate(-17.265 51.3962 559.576)" fill="#79D88D"/>
<circle cx="48.7636" cy="564.583" r="1" transform="rotate(-17.265 48.7636 564.583)" fill="#79D88D"/>
<circle cx="692.749" cy="56.8031" r="1" transform="rotate(9.39843 692.749 56.8031)" fill="#79D88D"/>
<circle cx="688.15" cy="60.0962" r="1" transform="rotate(9.39843 688.15 60.0962)" fill="#79D88D"/>
<circle cx="726.14" cy="231.577" r="1" transform="rotate(27.0287 726.14 231.577)" fill="#79D88D"/>
<circle cx="720.759" cy="233.322" r="1" transform="rotate(27.0287 720.759 233.322)" fill="#79D88D"/>
<circle cx="259.101" cy="94.1009" r="1" transform="rotate(0.600686 259.101 94.1009)" fill="#79D88D"/>
<circle cx="255.059" cy="98.0588" r="1" transform="rotate(0.600686 255.059 98.0588)" fill="#79D88D"/>
<circle cx="366.097" cy="267.156" r="1" transform="rotate(-9.80596 366.097 267.156)" fill="#79D88D"/>
<circle cx="362.837" cy="271.779" r="1" transform="rotate(-9.80596 362.837 271.779)" fill="#79D88D"/>
<circle cx="455.914" cy="196.717" r="1" transform="rotate(116.802 455.914 196.717)" fill="#79D88D"/>
<circle cx="454.147" cy="191.343" r="1" transform="rotate(116.802 454.147 191.343)" fill="#79D88D"/>
<circle cx="560.462" cy="317.042" r="1" transform="rotate(130.16 560.462 317.042)" fill="#79D88D"/>
<circle cx="559.985" cy="311.406" r="1" transform="rotate(130.16 559.985 311.406)" fill="#79D88D"/>
<circle cx="428.686" cy="469.627" r="1" transform="rotate(74.6487 428.686 469.627)" fill="#79D88D"/>
<circle cx="423.769" cy="466.828" r="1" transform="rotate(74.6487 423.769 466.828)" fill="#79D88D"/>
<circle cx="659.245" cy="541.421" r="1" transform="rotate(17.0334 659.245 541.421)" fill="#79D88D"/>
<circle cx="654.249" cy="544.074" r="1" transform="rotate(17.0334 654.249 544.074)" fill="#79D88D"/>
</svg>
