<svg width="100" height="100" viewBox="0 0 100 100" fill="none" xmlns="http://www.w3.org/2000/svg">
<g clip-path="url(#clip0_16_308)">
<rect width="100" height="100" fill="#2C3335"/>
<path d="M-2.5 83.5L50 70.5L101 83.5V127H0L-2.5 83.5Z" fill="#FFF8B8"/>
<path d="M36 73H65V86.5L58.5 100H42.5L36 86.5V73Z" fill="#2C3335"/>
<path d="M82.3446 55.7878C79.9987 67.1602 66.6719 75.8743 50.5829 75.8743C34.4938 75.8743 21.167 67.1602 18.8212 55.7878C21.167 40.354 34.4938 28.5276 50.5829 28.5276C66.6719 28.5276 79.9987 40.354 82.3446 55.7878Z" fill="#74DDDD"/>
<path d="M23.6161 26.6691C24.3571 23.3937 28.5606 22.4342 30.6495 25.0637L41.2693 38.4318C43.1008 40.7372 41.898 44.1643 39.0275 44.8196L24.6404 48.1036C21.7699 48.7588 19.1991 46.193 19.8488 43.3212L23.6161 26.6691Z" fill="#74DDDD"/>
<path d="M76.3839 26.6691C75.6429 23.3937 71.4394 22.4342 69.3505 25.0637L58.7307 38.4318C56.8992 40.7372 58.102 44.1643 60.9725 44.8196L75.3596 48.1036C78.2301 48.7588 80.8009 46.193 80.1512 43.3212L76.3839 26.6691Z" fill="#74DDDD"/>
<path d="M26.84 51.2044C24.0786 51.204 21.7824 53.4739 22.444 56.1549C23.5833 60.7719 26.3025 65.0499 30.3288 68.435C35.7649 73.0054 43.1384 75.5737 50.8271 75.5747C58.5158 75.5757 65.89 73.0095 71.3273 68.4405C75.3545 65.0565 78.0749 60.7793 79.2154 56.1626C79.8777 53.4818 77.5822 51.2112 74.8207 51.2109L50.8304 51.2076L26.84 51.2044Z" fill="#FFF8B8"/>
<ellipse cx="28.6005" cy="36.9824" rx="3.38191" ry="6.76381" fill="#2C3335"/>
<ellipse rx="3.38191" ry="6.76381" transform="matrix(-1 0 0 1 70.8743 36.9824)" fill="#2C3335"/>
<path d="M72.5652 52.201C72.5652 54.0687 69.537 55.5829 65.8014 55.5829C62.0659 55.5829 59.0376 54.0687 59.0376 52.201C59.0376 50.3332 62.0659 50.51 65.8014 50.51C69.537 50.51 72.5652 50.3332 72.5652 52.201Z" fill="#D95151"/>
<path d="M36 81C47.0652 93.0728 53.6305 92.9665 66 81" stroke="#FFEA2F"/>
</g>
<defs>
<clipPath id="clip0_16_308">
<rect width="100" height="100" fill="white"/>
</clipPath>
</defs>
</svg>
