<svg width="100" height="100" viewBox="0 0 100 100" fill="none" xmlns="http://www.w3.org/2000/svg">
<g clip-path="url(#clip0_16_242)">
<rect width="100" height="100" fill="#2C3335"/>
<path d="M33 80H68L76.5 107H25L33 80Z" fill="#D95151"/>
<path d="M33 71C46.667 78.5612 54.3324 78.3047 68 71V81H33V71Z" fill="#D95151"/>
<path d="M10 93L34.5 74L28.5 101H17.5L10 93Z" fill="#D95151"/>
<path d="M90.5 93L66 74L72 101H83L90.5 93Z" fill="#D95151"/>
<path d="M82.3446 55.7878C79.9987 67.1602 66.6719 75.8743 50.5829 75.8743C34.4938 75.8743 21.167 67.1602 18.8212 55.7878C21.167 40.354 34.4938 28.5276 50.5829 28.5276C66.6719 28.5276 79.9987 40.354 82.3446 55.7878Z" fill="white"/>
<path d="M23.6161 26.6691C24.3571 23.3937 28.5606 22.4342 30.6495 25.0637L41.2693 38.4318C43.1008 40.7372 41.898 44.1643 39.0275 44.8196L24.6404 48.1036C21.7699 48.7588 19.1991 46.193 19.8488 43.3212L23.6161 26.6691Z" fill="white"/>
<path d="M76.3839 26.6691C75.6429 23.3937 71.4394 22.4342 69.3505 25.0637L58.7307 38.4318C56.8992 40.7372 58.102 44.1643 60.9725 44.8196L75.3596 48.1036C78.2301 48.7588 80.8009 46.193 80.1512 43.3212L76.3839 26.6691Z" fill="white"/>
<path d="M26.84 51.2044C24.0786 51.204 21.7824 53.4739 22.444 56.1549C23.5833 60.7719 26.3025 65.0499 30.3288 68.435C35.7649 73.0054 43.1384 75.5737 50.8271 75.5747C58.5158 75.5757 65.89 73.0095 71.3273 68.4405C75.3545 65.0565 78.0749 60.7793 79.2154 56.1626C79.8777 53.4818 77.5822 51.2112 74.8207 51.2109L50.8304 51.2076L26.84 51.2044Z" fill="#FFF8B8"/>
<ellipse cx="28.6005" cy="36.9824" rx="3.38191" ry="6.76381" fill="#2C3335"/>
<ellipse rx="3.38191" ry="6.76381" transform="matrix(-1 0 0 1 70.8743 36.9824)" fill="#2C3335"/>
<path d="M72.5652 52.201C72.5652 54.0687 69.537 55.5829 65.8014 55.5829C62.0659 55.5829 59.0376 54.0687 59.0376 52.201C59.0376 50.3332 62.0659 50.51 65.8014 50.51C69.537 50.51 72.5652 50.3332 72.5652 52.201Z" fill="#D95151"/>
<path d="M36.1948 71.9015C41.1759 70.6833 43.9477 70.7158 48.8568 71.9015C49.0429 74.7161 49.0525 76.2625 48.8568 78.9492C43.8741 80.4127 41.105 80.2864 36.1948 78.9492C35.9775 76.1969 35.8958 74.6538 36.1948 71.9015Z" fill="#EFEFEF"/>
<path d="M43.3449 82.9196C44.8011 80.7892 45.8268 79.8293 47.9859 78.4877C48.9078 79.3166 49.3805 79.8045 50.1238 80.7265C48.7414 82.9354 47.6881 83.8644 45.4828 85.1584C44.5682 84.3601 44.0702 83.8985 43.3449 82.9196Z" fill="#EFEFEF"/>
<path d="M59.1501 82.9196C57.6939 80.7892 56.6682 79.8293 54.5091 78.4877C53.5872 79.3166 53.1145 79.8045 52.3712 80.7265C53.7536 82.9354 54.8069 83.8644 57.0122 85.1584C57.9268 84.3601 58.4248 83.8985 59.1501 82.9196Z" fill="#EFEFEF"/>
<path d="M53.1948 71.9015C58.1759 70.6833 60.9477 70.7158 65.8568 71.9015C66.0429 74.7161 66.0525 76.2625 65.8568 78.9492C60.8741 80.4127 58.105 80.2864 53.1948 78.9492C52.9775 76.1969 52.8958 74.6538 53.1948 71.9015Z" fill="#EFEFEF"/>
<path d="M47 71.6512C50.1909 70.7962 51.9433 70.7698 55 71.6512V79.6512C51.7425 81.137 49.9892 81.1741 47 79.6512V71.6512Z" fill="white"/>
</g>
<defs>
<clipPath id="clip0_16_242">
<rect width="100" height="100" fill="white"/>
</clipPath>
</defs>
</svg>
