<svg width="50" height="50" viewBox="0 0 50 50" fill="none" xmlns="http://www.w3.org/2000/svg">
<g clip-path="url(#clip0_5_22)">
<path d="M43.7833 27.1212C42.396 33.8466 34.5148 39 25 39C15.4852 39 7.60397 33.8466 6.21667 27.1212C7.60397 17.9939 15.4852 11 25 11C34.5148 11 42.396 17.9939 43.7833 27.1212Z" fill="#5AC971"/>
<path d="M8.29978 13.2273C9.0408 9.95192 13.2443 8.99243 15.3332 11.6219L17.8775 14.8246C19.7089 17.1301 18.5062 20.5572 15.6356 21.2124L12.1887 21.9992C9.31824 22.6545 6.7475 20.0887 7.3972 17.2169L8.29978 13.2273Z" fill="#5AC971"/>
<path d="M41.0108 13.2273C40.2698 9.95192 36.0663 8.99243 33.9774 11.6219L31.4331 14.8246C29.6017 17.1301 30.8045 20.5572 33.675 21.2124L37.1219 21.9992C39.9924 22.6545 42.5631 20.0887 41.9134 17.2169L41.0108 13.2273Z" fill="#5AC971"/>
<path d="M13.0019 24.4109C10.2405 24.4106 7.92401 26.7335 9.00714 29.2737C9.85326 31.258 11.2151 33.0813 13.022 34.6005C16.2369 37.3034 20.5974 38.8222 25.1444 38.8228C29.6914 38.8234 34.0523 37.3058 37.2679 34.6038C39.0753 33.0851 40.4376 31.2621 41.2842 29.278C42.368 26.7382 40.0522 24.4146 37.2907 24.4142L25.1463 24.4126L13.0019 24.4109Z" fill="#FFF8B8"/>
<ellipse cx="12" cy="16" rx="2" ry="4" fill="#2C3335"/>
<ellipse rx="2" ry="4" transform="matrix(-1 0 0 1 37 16)" fill="#2C3335"/>
<path d="M38 25C38 26.1046 36.2091 27 34 27C31.7909 27 30 26.1046 30 25C30 23.8954 31.7909 24 34 24C36.2091 24 38 23.8954 38 25Z" fill="#D95151"/>
</g>
<defs>
<clipPath id="clip0_5_22">
<rect width="47" height="43" fill="white" transform="translate(1 3)"/>
</clipPath>
</defs>
</svg>
